<?xml version="1.0" encoding="UTF-8"?>
<svg version="1.1" xmlns="http://www.w3.org/2000/svg" width="676" height="676">
<path d="M0 0 C223.08 0 446.16 0 676 0 C676 223.08 676 446.16 676 676 C452.92 676 229.84 676 0 676 C0 452.92 0 229.84 0 0 Z " fill="#000000" transform="translate(0,0)"/>
<path d="M0 0 C15.84 0 31.68 0 48 0 C49.753125 3.073125 51.50625 6.14625 53.3125 9.3125 C62.42960011 25.27459959 71.65941815 41.16775086 81 57 C86.76083062 66.76458502 92.48910061 76.54624996 98.15136719 86.3684082 C101.04993517 91.38858145 104.0054592 96.36649658 107.07421875 101.28515625 C108 103 108 103 108 105 C111.03225158 102.20034168 112.97926721 99.55344485 114.87109375 95.89453125 C117.78047413 90.39214622 120.87744612 85.03398167 124.0625 79.6875 C125.2044988 77.76306339 126.34642371 75.83858293 127.48828125 73.9140625 C128.35767334 72.45081543 128.35767334 72.45081543 129.24462891 70.95800781 C131.53430922 67.09962579 133.81375511 63.2352478 136.09326172 59.37084961 C140.18213938 52.43976212 144.28031731 45.51535267 148.4375 38.625 C156.13578184 25.85662792 163.60303252 12.94469309 171 0 C184.86 0 198.72 0 213 0 C213 76.23 213 152.46 213 231 C199.47 231 185.94 231 172 231 C171.67 181.17 171.34 131.34 171 80 C167.37 86.27 163.74 92.54 160 99 C156.375 105 156.375 105 155.0234375 107.1875 C153.85056253 109.12982569 153.85056253 109.12982569 153 112 C152.34 112 151.68 112 151 112 C150.72381836 112.7326709 150.44763672 113.4653418 150.16308594 114.22021484 C149.07734575 116.815143 147.856956 119.08141645 146.390625 121.4765625 C145.88619873 122.30679932 145.38177246 123.13703613 144.86206055 123.99243164 C144.33008057 124.8611792 143.79810059 125.72992676 143.25 126.625 C139.46156246 132.8654063 135.78483891 139.1199949 132.35546875 145.56640625 C130.3123398 149.2346176 128.00326852 152.72242248 125.72265625 156.24609375 C123.47164045 159.84465643 121.47632382 163.55669553 119.47265625 167.296875 C115.96862806 173.72867209 112.1352293 179.95620333 108 186 C104.12553719 181.54071262 101.37397024 176.62711396 98.5 171.5 C97.43497971 169.61844211 96.36987298 167.73693314 95.3046875 165.85546875 C94.76038086 164.89044434 94.21607422 163.92541992 93.65527344 162.93115234 C90.99293752 158.21669732 88.30938369 153.51442429 85.625 148.8125 C85.14998047 147.9771875 84.67496094 147.141875 84.18554688 146.28125 C79.56919248 138.1848746 74.75938926 130.21260917 69.86669922 122.28076172 C65.925286 115.88353404 62.0639336 109.48004359 58.52734375 102.84765625 C56.54110361 99.14441058 54.49314247 95.47756628 52.4375 91.8125 C52.07317871 91.15878418 51.70885742 90.50506836 51.33349609 89.83154297 C48.68682446 85.11697343 45.87333461 80.59733537 43 76 C42.67 127.48 42.34 178.96 42 232 C28.14 232 14.28 232 0 232 C0 155.44 0 78.88 0 0 Z " fill="#FBFBFB" transform="translate(152,221)"/>
<path d="M0 0 C17.98657272 -0.12032643 17.98657272 -0.12032643 25.71875 -0.14648438 C30.97209896 -0.16434139 36.22528942 -0.18534866 41.47851562 -0.22631836 C45.71902949 -0.25917883 49.95937311 -0.2769086 54.20000458 -0.28463173 C55.80894394 -0.29012777 57.41787516 -0.3008586 59.02674103 -0.31719017 C71.5602667 -0.43923001 82.85577705 0.80087514 94.125 6.6875 C94.80240234 7.03562744 95.47980469 7.38375488 96.17773438 7.74243164 C111.06833233 15.63310003 122.85533671 28.0801888 128.06640625 44.32421875 C128.80060693 47.20781853 129.44136289 50.07789817 130 53 C130.18175781 53.82886719 130.36351562 54.65773438 130.55078125 55.51171875 C133.25856663 70.51049513 128.51718204 86.62685736 120 99 C117.21888099 102.37456731 114.22760093 105.52368344 111.16015625 108.63671875 C108.77510858 110.7124091 108.77510858 110.7124091 109 113 C110.61219642 114.03361378 112.26732324 115.00045981 113.9375 115.9375 C125.37664282 123.05388191 131.87298837 134.21458639 136.3125 146.6875 C139.86931618 163.82488706 138.34518866 181.35256807 128.91796875 196.47265625 C117.27946131 214.1620796 100.56791338 224.95504012 80 230 C75.11979771 230.81777261 70.44973186 231.12209659 65.50415039 231.11352539 C64.43460114 231.11374443 64.43460114 231.11374443 63.34344482 231.1139679 C61.0114832 231.11327713 58.67960374 231.1055243 56.34765625 231.09765625 C54.72098331 231.0957891 53.09430981 231.0943666 51.46763611 231.09336853 C47.20484846 231.08956677 42.94209537 231.07975668 38.67932129 231.06866455 C33.55472274 231.05659233 28.43011257 231.05203704 23.30550385 231.04621124 C15.5369786 231.03654351 7.76852904 231.01737062 0 231 C0 215.82 0 200.64 0 185 C4.50398438 184.95101562 9.00796875 184.90203125 13.6484375 184.8515625 C16.5195523 184.81613361 19.39063904 184.78014945 22.26171875 184.7421875 C26.80838785 184.68212278 31.35501816 184.62399923 35.90185547 184.578125 C39.57189974 184.54096741 43.24172477 184.49452977 46.91157913 184.44193649 C48.30440001 184.42355293 49.69726758 184.40838733 51.09016037 184.39665604 C67.61849602 184.31073974 67.61849602 184.31073974 82 177 C86.93704124 171.80311448 88.28936981 167.16346823 88.3125 160.0625 C88.33763672 158.28552734 88.33763672 158.28552734 88.36328125 156.47265625 C87.8077943 151.16267887 85.85519828 147.23669576 81.75 143.8125 C81.20859375 143.34457031 80.6671875 142.87664062 80.109375 142.39453125 C74.69996362 138.81830928 70.14321092 137.62516231 63.68774414 137.56762695 C62.6474556 137.55233948 62.6474556 137.55233948 61.58615112 137.53674316 C59.3190685 137.50681587 57.05240975 137.49737889 54.78515625 137.48828125 C53.20330931 137.47141943 51.62147564 137.45326717 50.03965759 137.43388367 C45.89529571 137.38654041 41.75098767 137.35663007 37.60644531 137.33044434 C32.6235504 137.29529628 27.64086218 137.23832846 22.65813446 137.18505096 C15.10544981 137.1067209 7.55303231 137.05597698 0 137 C0 122.15 0 107.3 0 92 C4.08246094 91.95101562 8.16492188 91.90203125 12.37109375 91.8515625 C15.64750153 91.80695544 18.92387065 91.76046384 22.20023346 91.71270752 C25.64704029 91.66297947 29.09381788 91.61649192 32.54077148 91.578125 C36.50521417 91.53384364 40.4693601 91.47429298 44.43359375 91.4140625 C45.65582138 91.40251129 46.87804901 91.39096008 48.13731384 91.37905884 C61.97686048 91.18975476 61.97686048 91.18975476 74 85 C78.53604844 78.6189785 80.51415769 72.84090477 80 65 C78.86669277 59.03194174 76.88284468 55.17988535 72.20703125 51.2890625 C64.16795148 46.59367078 56.79211851 46.5326787 47.65625 46.48828125 C46.27761258 46.47140927 44.8989903 46.45325568 43.52038574 46.43388367 C39.91691829 46.38665025 36.31351226 46.35666961 32.70983887 46.33044434 C29.02258256 46.30050307 25.33553321 46.2541779 21.6484375 46.20898438 C14.4322769 46.12172484 7.21660847 46.06155343 0 46 C0 30.82 0 15.64 0 0 Z " fill="#FBCE00" transform="translate(393,222)"/>
<path d="M0 0 C3.63 0 7.26 0 11 0 C11 95.37 11 190.74 11 289 C7.37 289 3.74 289 0 289 C0 193.63 0 98.26 0 0 Z " fill="#FBFBFB" transform="translate(374,194)"/>
<path d="M0 0 C3.63 0 7.26 0 11 0 C13.7047418 6.89709158 15.85761818 13.90797742 18 21 C19.98 14.07 21.96 7.14 24 0 C27.96 0 31.92 0 36 0 C36 11.22 36 22.44 36 34 C33.69 34 31.38 34 29 34 C28.505 22.12 28.505 22.12 28 10 C26.02 17.92 24.04 25.84 22 34 C19.36 34 16.72 34 14 34 C12.02 27.4 10.04 20.8 8 14 C7.67 20.6 7.34 27.2 7 34 C4.69 34 2.38 34 0 34 C0 22.78 0 11.56 0 0 Z " fill="#EFEFEF" transform="translate(149,492)"/>
<path d="M0 0 C3.031875 -0.061875 6.06375 -0.12375 9.1875 -0.1875 C10.60712036 -0.22846802 10.60712036 -0.22846802 12.05541992 -0.27026367 C16.88172477 -0.31790685 20.06658483 -0.12939042 24 3 C25.57960269 4.57960269 25.16986544 6.19536816 25.1875 8.375 C25.20167969 9.16648437 25.21585937 9.95796875 25.23046875 10.7734375 C25 13 25 13 23 16 C23.66 16.474375 24.32 16.94875 25 17.4375 C27.55156049 20.70668688 27.63458043 22.81442682 27.4609375 26.875 C27 29 27 29 24.6875 31.5 C21.14277994 33.47844841 18.54515441 34.12446412 14.55078125 34.09765625 C13.78677002 34.09515869 13.02275879 34.09266113 12.2355957 34.09008789 C11.27097412 34.08098389 10.30635254 34.07187988 9.3125 34.0625 C4.7028125 34.0315625 4.7028125 34.0315625 0 34 C0 22.78 0 11.56 0 0 Z " fill="#F4D455" transform="translate(341,492)"/>
<path d="M0 0 C3.33388318 0.16951948 4.94441987 0.43192871 7.6875 2.1875 C8.6775 1.5275 9.6675 0.8675 10.6875 0.1875 C14.50854324 -0.23706036 16.91972836 -0.18696871 20.39453125 1.5078125 C24.0175734 5.74189583 23.22164454 10.06347231 23 15.4375 C22.97744141 16.46875 22.95488281 17.5 22.93164062 18.5625 C22.87277163 21.10564065 22.79060065 23.64583113 22.6875 26.1875 C20.7075 26.1875 18.7275 26.1875 16.6875 26.1875 C16.1925 16.7825 16.1925 16.7825 15.6875 7.1875 C13.2125 6.6925 13.2125 6.6925 10.6875 6.1875 C9.13799732 7.73700268 9.47094807 9.28740594 9.37109375 11.44140625 C9.32919922 12.29541016 9.28730469 13.14941406 9.24414062 14.02929688 C9.20482422 14.92712891 9.16550781 15.82496094 9.125 16.75 C9.08181641 17.65169922 9.03863281 18.55339844 8.99414062 19.48242188 C8.88771858 21.71728485 8.78570012 23.95226308 8.6875 26.1875 C6.3775 26.1875 4.0675 26.1875 1.6875 26.1875 C1.3575 19.9175 1.0275 13.6475 0.6875 7.1875 C-0.6325 6.8575 -1.9525 6.5275 -3.3125 6.1875 C-5.66608251 8.54108251 -5.59121904 9.11718394 -5.7265625 12.3203125 C-5.76523437 13.12597656 -5.80390625 13.93164062 -5.84375 14.76171875 C-5.8746875 15.60347656 -5.905625 16.44523438 -5.9375 17.3125 C-5.97617187 18.16199219 -6.01484375 19.01148438 -6.0546875 19.88671875 C-6.14906494 21.98661684 -6.23187586 24.08702891 -6.3125 26.1875 C-8.2925 26.1875 -10.2725 26.1875 -12.3125 26.1875 C-12.3125 17.9375 -12.3125 9.6875 -12.3125 1.1875 C-9.64583333 1.1875 -6.97916667 1.1875 -4.3125 1.1875 C-3.3125 0.1875 -3.3125 0.1875 0 0 Z " fill="#F4D455" transform="translate(482.3125,499.8125)"/>
<path d="M0 0 C5.46341463 2.92682927 5.46341463 2.92682927 7 6 C7.08372659 7.52148326 7.10730027 9.04655778 7.09765625 10.5703125 C7.09443359 11.46621094 7.09121094 12.36210938 7.08789062 13.28515625 C7.07951172 14.22230469 7.07113281 15.15945313 7.0625 16.125 C7.05798828 17.06988281 7.05347656 18.01476562 7.04882812 18.98828125 C7.03702357 21.32558387 7.02055759 23.66276061 7 26 C4.98177083 25.96744792 2.96354167 25.93489583 0.9453125 25.90234375 C-1.08185404 25.87350758 -1.08185404 25.87350758 -3 27 C-7.25561995 27.50114443 -10.80908635 27.69712018 -14.5625 25.5 C-16.29731062 22.48293804 -16.68812838 20.35599757 -16.52734375 16.90234375 C-16 15 -16 15 -13.1875 12.5625 C-8.48921921 10.25942118 -5.20295573 9.90183102 0 10 C-0.66 8.68 -1.32 7.36 -2 6 C-3.98 6 -5.96 6 -8 6 C-8 6.99 -8 7.98 -8 9 C-10.31 9 -12.62 9 -15 9 C-14.72608098 5.7129718 -14.18168017 4.21006769 -12 1.6875 C-7.91196651 -0.61201884 -4.59241398 -0.82324468 0 0 Z " fill="#EDEDED" transform="translate(318,500)"/>
<path d="M0 0 C5.46341463 2.92682927 5.46341463 2.92682927 7 6 C7.08372659 7.52148326 7.10730027 9.04655778 7.09765625 10.5703125 C7.09443359 11.46621094 7.09121094 12.36210938 7.08789062 13.28515625 C7.07951172 14.22230469 7.07113281 15.15945313 7.0625 16.125 C7.05798828 17.06988281 7.05347656 18.01476562 7.04882812 18.98828125 C7.03702357 21.32558387 7.02055759 23.66276061 7 26 C4.98177083 25.96744792 2.96354167 25.93489583 0.9453125 25.90234375 C-1.08185404 25.87350758 -1.08185404 25.87350758 -3 27 C-7.25561995 27.50114443 -10.80908635 27.69712018 -14.5625 25.5 C-16.29731062 22.48293804 -16.68812838 20.35599757 -16.52734375 16.90234375 C-16 15 -16 15 -13.1875 12.5625 C-8.48921921 10.25942118 -5.20295573 9.90183102 0 10 C-0.66 8.68 -1.32 7.36 -2 6 C-3.98 6 -5.96 6 -8 6 C-8 6.99 -8 7.98 -8 9 C-10.31 9 -12.62 9 -15 9 C-14.72608098 5.7129718 -14.18168017 4.21006769 -12 1.6875 C-7.91196651 -0.61201884 -4.59241398 -0.82324468 0 0 Z " fill="#EDEDED" transform="translate(275,500)"/>
<path d="M0 0 C4.3934329 2.19671645 7.05384852 4.45897989 9 9 C9 10.98 9 12.96 9 15 C2.73 15 -3.54 15 -10 15 C-8.02 17.97 -8.02 17.97 -6 21 C-2.83073436 21.50169415 -2.83073436 21.50169415 0 21 C0.33 20.01 0.66 19.02 1 18 C3.31 18 5.62 18 8 18 C6.64728697 21.20379402 5.50176755 23.55726392 2.875 25.875 C-1.16996975 27.45781425 -4.71900311 27.82152933 -9 27 C-12.54652163 25.03889376 -14.7577731 22.36334035 -17 19 C-17.75792684 14.42328792 -18.06639478 9.87763989 -15.7265625 5.7578125 C-11.01420638 0.21792067 -7.20493016 -0.87332487 0 0 Z " fill="#F0D154" transform="translate(457,500)"/>
<path d="M0 0 C3.58552881 1.63687185 4.79315055 2.68972583 7 6 C7.22705078 8.17651367 7.22705078 8.17651367 7.1953125 10.66796875 C7.18886719 11.56064453 7.18242187 12.45332031 7.17578125 13.37304688 C7.15902344 14.30181641 7.14226562 15.23058594 7.125 16.1875 C7.11597656 17.12787109 7.10695313 18.06824219 7.09765625 19.03710938 C7.07409056 21.35832968 7.04119116 23.67903644 7 26 C4.98177083 25.96744792 2.96354167 25.93489583 0.9453125 25.90234375 C-1.08185404 25.87350758 -1.08185404 25.87350758 -3 27 C-10.0521327 27.56872038 -10.0521327 27.56872038 -13.5 25.5 C-15.62072118 21.9654647 -15.91524487 19.01553379 -15 15 C-12.75945177 12.08728731 -11.04427629 11.18653485 -7.44140625 10.54296875 C-4.95770347 10.27874505 -2.49536278 10.09690729 0 10 C-0.33 8.68 -0.66 7.36 -1 6 C-3.41619823 5.74969023 -3.41619823 5.74969023 -6 6 C-6.99 7.485 -6.99 7.485 -8 9 C-11.625 9.1875 -11.625 9.1875 -15 9 C-12.64912938 1.30624159 -7.64962889 -1.30074661 0 0 Z " fill="#F1D254" transform="translate(387,500)"/>
<path d="M0 0 C3.5 1.6875 3.5 1.6875 6 4 C6.875 6.75 6.875 6.75 7 9 C3.625 9.1875 3.625 9.1875 0 9 C-0.66 8.01 -1.32 7.02 -2 6 C-4.58380177 5.74969023 -4.58380177 5.74969023 -7 6 C-7.33 6.99 -7.66 7.98 -8 9 C-7.18015625 9.17015625 -6.3603125 9.3403125 -5.515625 9.515625 C-3.89914063 9.87914062 -3.89914063 9.87914062 -2.25 10.25 C-1.18265625 10.48203125 -0.1153125 10.7140625 0.984375 10.953125 C4.31570744 12.10959792 5.82115649 13.25837464 8 16 C8.625 18.9375 8.625 18.9375 8 22 C5.32149902 25.24239592 3.7170198 26.68048984 -0.4140625 27.44921875 C-4.79158015 27.64098312 -7.56244097 27.2072648 -11.5625 25.3125 C-14.21261372 22.79828955 -14.80037128 21.59331694 -15 18 C-11.625 17.8125 -11.625 17.8125 -8 18 C-7.34 18.99 -6.68 19.98 -6 21 C-2.91634129 21.2502157 -2.91634129 21.2502157 0 21 C0 20.01 0 19.02 0 18 C-1.26457031 17.61908203 -1.26457031 17.61908203 -2.5546875 17.23046875 C-3.65039062 16.88628906 -4.74609375 16.54210937 -5.875 16.1875 C-6.96554688 15.85105469 -8.05609375 15.51460937 -9.1796875 15.16796875 C-12 14 -12 14 -14 11 C-14.4375 7.5625 -14.4375 7.5625 -14 4 C-10.24346677 -0.72596116 -5.6298335 -0.97953166 0 0 Z " fill="#EFEFEF" transform="translate(231,500)"/>
<path d="M0 0 C2.31 0 4.62 0 7 0 C8.65 4.62 10.3 9.24 12 14 C13.65 9.38 15.3 4.76 17 0 C19.31 0 21.62 0 24 0 C18.25221239 23.62168142 18.25221239 23.62168142 12 33 C8.78548731 34.60725635 5.56387464 34.05748185 2 34 C2 32.35 2 30.7 2 29 C3.65 28.67 5.3 28.34 7 28 C7.59511813 21.30492099 5.4624615 16.16056678 3 10 C0 2.24267782 0 2.24267782 0 0 Z " fill="#EDCE52" transform="translate(397,501)"/>
<path d="M0 0 C2.31 0 4.62 0 7 0 C7.33 6.6 7.66 13.2 8 20 C9.98 19.67 11.96 19.34 14 19 C14.33 12.73 14.66 6.46 15 0 C17.31 0 19.62 0 22 0 C22 8.25 22 16.5 22 25 C19.33333333 25 16.66666667 25 14 25 C13.34 25.33 12.68 25.66 12 26 C7.88432533 26.46592543 5.75665403 26.51570224 2.2890625 24.15234375 C-1.03871507 19.56955109 -0.55291198 15.69478367 -0.3125 10.1875 C-0.28994141 9.20845703 -0.26738281 8.22941406 -0.24414062 7.22070312 C-0.18539727 4.81222545 -0.10332129 2.40690922 0 0 Z " fill="#EDEDED" transform="translate(190,501)"/>
<path d="M0 0 C1.98 0 3.96 0 6 0 C6.06058594 1.27617187 6.12117187 2.55234375 6.18359375 3.8671875 C6.26799568 5.53647016 6.35264386 7.20574037 6.4375 8.875 C6.47681641 9.71675781 6.51613281 10.55851562 6.55664062 11.42578125 C6.59853516 12.23144531 6.64042969 13.03710938 6.68359375 13.8671875 C6.72025146 14.61081543 6.75690918 15.35444336 6.79467773 16.12060547 C6.89955865 18.08864312 6.89955865 18.08864312 8 20 C10.41619823 20.25030977 10.41619823 20.25030977 13 20 C14.9756562 17.03651571 15.26376859 16.31979627 15.4140625 12.98828125 C15.47207031 11.85229492 15.47207031 11.85229492 15.53125 10.69335938 C15.57765625 9.51483398 15.57765625 9.51483398 15.625 8.3125 C15.68300781 7.11657227 15.68300781 7.11657227 15.7421875 5.89648438 C15.83632494 3.93136525 15.91924632 1.9657146 16 0 C17.98 0 19.96 0 22 0 C22 8.25 22 16.5 22 25 C19.33333333 25 16.66666667 25 14 25 C13.34 25.33 12.68 25.66 12 26 C7.88432533 26.46592543 5.75665403 26.51570224 2.2890625 24.15234375 C-1.03871507 19.56955109 -0.55291198 15.69478367 -0.3125 10.1875 C-0.28994141 9.20845703 -0.26738281 8.22941406 -0.24414062 7.22070312 C-0.18539727 4.81222545 -0.10332129 2.40690922 0 0 Z " fill="#F7D756" transform="translate(510,501)"/>
<path d="M0 0 C1.8871875 0.061875 1.8871875 0.061875 3.8125 0.125 C3.8125 1.775 3.8125 3.425 3.8125 5.125 C2.1625 5.125 0.5125 5.125 -1.1875 5.125 C-1.1875 6.445 -1.1875 7.765 -1.1875 9.125 C0.4625 9.125 2.1125 9.125 3.8125 9.125 C3.8125 10.775 3.8125 12.425 3.8125 14.125 C2.1625 14.125 0.5125 14.125 -1.1875 14.125 C-1.1875 20.725 -1.1875 27.325 -1.1875 34.125 C-3.4975 34.125 -5.8075 34.125 -8.1875 34.125 C-8.1875 27.525 -8.1875 20.925 -8.1875 14.125 C-9.5075 14.125 -10.8275 14.125 -12.1875 14.125 C-12.1875 12.475 -12.1875 10.825 -12.1875 9.125 C-10.8675 9.125 -9.5475 9.125 -8.1875 9.125 C-8.0328125 7.454375 -8.0328125 7.454375 -7.875 5.75 C-7.648125 4.55375 -7.42125 3.3575 -7.1875 2.125 C-4.09861478 0.06574319 -3.47814073 -0.1140374 0 0 Z " fill="#ECECEC" transform="translate(296.1875,491.875)"/>
<path d="M0 0 C2.31 0 4.62 0 7 0 C7 2.97 7 5.94 7 9 C8.32 9 9.64 9 11 9 C11 10.65 11 12.3 11 14 C9.68 14 8.36 14 7 14 C7 18.95 7 23.9 7 29 C8.32 29 9.64 29 11 29 C11 30.65 11 32.3 11 34 C9.54207116 34.05399736 8.08357288 34.09279177 6.625 34.125 C5.81289062 34.14820313 5.00078125 34.17140625 4.1640625 34.1953125 C2 34 2 34 0 32 C-0.22705078 30.12060547 -0.22705078 30.12060547 -0.1953125 27.8671875 C-0.18886719 27.06152344 -0.18242187 26.25585938 -0.17578125 25.42578125 C-0.15902344 24.58402344 -0.14226562 23.74226562 -0.125 22.875 C-0.11597656 22.02550781 -0.10695312 21.17601562 -0.09765625 20.30078125 C-0.07405647 18.20040116 -0.03818483 16.10016556 0 14 C-1.32 14 -2.64 14 -4 14 C-4 12.35 -4 10.7 -4 9 C-2.68 9 -1.36 9 0 9 C0 6.03 0 3.06 0 0 Z " fill="#EEEEEE" transform="translate(245,492)"/>
<path d="M0 0 C2.31 0 4.62 0 7 0 C7 2.97 7 5.94 7 9 C8.32 9 9.64 9 11 9 C11 10.65 11 12.3 11 14 C9.68 14 8.36 14 7 14 C7 18.95 7 23.9 7 29 C8.32 29 9.64 29 11 29 C11 30.65 11 32.3 11 34 C3.47017427 34.3703193 3.47017427 34.3703193 1.390625 32.73242188 C-0.30191723 30.62387558 -0.35318217 29.65774276 -0.29296875 26.98828125 C-0.28330078 26.23095703 -0.27363281 25.47363281 -0.26367188 24.69335938 C-0.23853516 23.90767578 -0.21339844 23.12199219 -0.1875 22.3125 C-0.16719727 21.11657227 -0.16719727 21.11657227 -0.14648438 19.89648438 C-0.11117089 17.93070033 -0.05736447 15.96526418 0 14 C-0.99 14 -1.98 14 -3 14 C-3 12.35 -3 10.7 -3 9 C-2.01 9 -1.02 9 0 9 C0 6.03 0 3.06 0 0 Z " fill="#EFD053" transform="translate(426,492)"/>
<path d="M0 0 C1.2065625 0.0309375 1.2065625 0.0309375 2.4375 0.0625 C2.4375 2.0425 2.4375 4.0225 2.4375 6.0625 C1.468125 6.35125 0.49875 6.64 -0.5 6.9375 C-3.66914203 7.70464682 -3.66914203 7.70464682 -4.5625 10.0625 C-4.7947646 12.77512116 -4.98186235 15.47023126 -5.125 18.1875 C-5.16818359 18.94160156 -5.21136719 19.69570313 -5.25585938 20.47265625 C-5.3619832 22.33571888 -5.46275001 24.19908524 -5.5625 26.0625 C-7.5425 26.0625 -9.5225 26.0625 -11.5625 26.0625 C-11.5625 17.8125 -11.5625 9.5625 -11.5625 1.0625 C-8.89583333 1.0625 -6.22916667 1.0625 -3.5625 1.0625 C-2.5625 0.0625 -2.5625 0.0625 0 0 Z " fill="#F7D756" transform="translate(548.5625,499.9375)"/>
<path d="M0 0 C1.60379341 -0.05416188 3.20811406 -0.09286638 4.8125 -0.125 C5.70582031 -0.14820313 6.59914063 -0.17140625 7.51953125 -0.1953125 C10 0 10 0 13 2 C13.3125 4.5 13.3125 4.5 13 7 C11 9 11 9 8.3984375 9.1953125 C7.40070313 9.17210937 6.40296875 9.14890625 5.375 9.125 C3.87066406 9.09792969 3.87066406 9.09792969 2.3359375 9.0703125 C1.56507813 9.04710937 0.79421875 9.02390625 0 9 C0 6.03 0 3.06 0 0 Z " fill="#0E0C05" transform="translate(348,511)"/>
<path d="M0 0 C1.64574566 -0.02688151 3.29161413 -0.04634123 4.9375 -0.0625 C5.85402344 -0.07410156 6.77054687 -0.08570313 7.71484375 -0.09765625 C10 0 10 0 11 1 C11.04080783 2.99958364 11.04254356 5.00045254 11 7 C8.59454362 8.20272819 7.05003047 8.10071472 4.375 8.0625 C3.14910156 8.04896484 3.14910156 8.04896484 1.8984375 8.03515625 C0.95871094 8.01775391 0.95871094 8.01775391 0 8 C0 5.36 0 2.72 0 0 Z " fill="#0B0903" transform="translate(348,498)"/>
<path d="M0 0 C0.1875 2.375 0.1875 2.375 0 5 C-3.22791555 7.1519437 -4.28400809 7.20086443 -8 7 C-8.33 5.35 -8.66 3.7 -9 2 C-5.62902617 0.50178941 -3.79557881 0 0 0 Z " fill="#0E0C04" transform="translate(387,515)"/>
<path d="M0 0 C13.53 0 27.06 0 41 0 C41 0.33 41 0.66 41 1 C39.25928223 1.02187378 39.25928223 1.02187378 37.48339844 1.04418945 C33.17432982 1.10219941 28.8657823 1.17943207 24.55712891 1.26245117 C22.69295718 1.29568784 20.82868513 1.32372373 18.96435547 1.34643555 C16.28309409 1.38000488 13.60275104 1.43232109 10.921875 1.48828125 C10.08944275 1.49467117 9.2570105 1.5010611 8.39935303 1.50764465 C4.04294368 1.61812596 1.22211894 1.72061591 -2 5 C-1.34 3.35 -0.68 1.7 0 0 Z " fill="#EDEDED" transform="translate(323,222)"/>
<path d="M0 0 C-0.3125 2.375 -0.3125 2.375 -1 5 C-4 7 -4 7 -6.6875 6.625 C-7.450625 6.41875 -8.21375 6.2125 -9 6 C-8.67 4.35 -8.34 2.7 -8 1 C-5.23735711 0.40267181 -2.83967231 0 0 0 Z " fill="#0A0A0A" transform="translate(318,515)"/>
<path d="M0 0 C-0.3125 2.375 -0.3125 2.375 -1 5 C-4 7 -4 7 -6.6875 6.625 C-7.450625 6.41875 -8.21375 6.2125 -9 6 C-8.67 4.35 -8.34 2.7 -8 1 C-5.23735711 0.40267181 -2.83967231 0 0 0 Z " fill="#0A0A0A" transform="translate(275,515)"/>
<path d="M0 0 C3.4375 0.1875 3.4375 0.1875 7 1 C7.66 2.32 8.32 3.64 9 5 C5.04 5 1.08 5 -3 5 C-1 1 -1 1 0 0 Z " fill="#0B0903" transform="translate(450,505)"/>
<path d="M0 0 C2.375 -0.125 2.375 -0.125 5 0 C5.66 0.66 6.32 1.32 7 2 C6.625 4.125 6.625 4.125 6 6 C3.625 6.625 3.625 6.625 1 7 C0.34 6.34 -0.32 5.68 -1 5 C-0.625 2.375 -0.625 2.375 0 0 Z " fill="#E8CA51" transform="translate(523,491)"/>
<path d="M0 0 C2.00720923 0.28674418 4.0085944 0.61866701 6 1 C5.67 2.65 5.34 4.3 5 6 C2.625 6.625 2.625 6.625 0 7 C-0.66 6.34 -1.32 5.68 -2 5 C-1.46428571 1.46428571 -1.46428571 1.46428571 0 0 Z " fill="#E7C950" transform="translate(514,491)"/>
</svg>
