<?xml version="1.0" encoding="UTF-8"?>
<!DOCTYPE svg PUBLIC "-//W3C//DTD SVG 1.1//EN" "http://www.w3.org/Graphics/SVG/1.1/DTD/svg11.dtd">
<svg xmlns="http://www.w3.org/2000/svg" version="1.1" width="500px" height="500px" style="shape-rendering:geometricPrecision; text-rendering:geometricPrecision; image-rendering:optimizeQuality; fill-rule:evenodd; clip-rule:evenodd" xmlns:xlink="http://www.w3.org/1999/xlink">
<g><path style="opacity:1" fill="#000000" d="M -0.5,-0.5 C 166.167,-0.5 332.833,-0.5 499.5,-0.5C 499.5,166.167 499.5,332.833 499.5,499.5C 332.833,499.5 166.167,499.5 -0.5,499.5C -0.5,332.833 -0.5,166.167 -0.5,-0.5 Z"/></g>
<g><path style="opacity:1" fill="#f2f2f2" d="M 276.5,143.5 C 279.167,143.5 281.833,143.5 284.5,143.5C 284.5,214.167 284.5,284.833 284.5,355.5C 281.833,355.5 279.167,355.5 276.5,355.5C 276.5,284.833 276.5,214.167 276.5,143.5 Z"/></g>
<g><path style="opacity:1" fill="#827a00" d="M 343.5,164.5 C 326.167,164.5 308.833,164.5 291.5,164.5C 291.5,175.5 291.5,186.5 291.5,197.5C 306.676,197.171 321.676,197.504 336.5,198.5C 321.167,198.5 305.833,198.5 290.5,198.5C 290.5,186.833 290.5,175.167 290.5,163.5C 308.341,163.17 326.008,163.503 343.5,164.5 Z"/></g>
<g><path style="opacity:1" fill="#959595" d="M 148.5,164.5 C 137.167,164.5 125.833,164.5 114.5,164.5C 114.5,220.833 114.5,277.167 114.5,333.5C 124.5,333.5 134.5,333.5 144.5,333.5C 134.347,334.494 124.014,334.828 113.5,334.5C 113.5,277.5 113.5,220.5 113.5,163.5C 125.345,163.172 137.012,163.505 148.5,164.5 Z"/></g>
<g><path style="opacity:1" fill="#fdfcfd" d="M 148.5,164.5 C 163.474,189.77 178.474,215.103 193.5,240.5C 209.258,215.412 224.591,190.079 239.5,164.5C 249.5,164.5 259.5,164.5 269.5,164.5C 269.5,220.833 269.5,277.167 269.5,333.5C 259.833,333.5 250.167,333.5 240.5,333.5C 240.667,296.165 240.5,258.832 240,221.5C 239.283,222.044 238.783,222.711 238.5,223.5C 223.178,248.806 207.845,274.139 192.5,299.5C 176.705,273.721 161.372,247.721 146.5,221.5C 146.539,220.244 146.039,219.244 145,218.5C 144.5,256.832 144.333,295.165 144.5,333.5C 134.5,333.5 124.5,333.5 114.5,333.5C 114.5,277.167 114.5,220.833 114.5,164.5C 125.833,164.5 137.167,164.5 148.5,164.5 Z"/></g>
<g><path style="opacity:1" fill="#fccf00" d="M 343.5,164.5 C 362.308,167.322 375.808,177.322 384,194.5C 390.128,214.659 385.628,231.992 370.5,246.5C 392.409,262.469 397.576,282.803 386,307.5C 376.159,322.503 362.325,331.169 344.5,333.5C 326.833,333.5 309.167,333.5 291.5,333.5C 291.5,322.5 291.5,311.5 291.5,300.5C 308.875,300.912 326.209,300.412 343.5,299C 355.896,293.018 359.063,283.852 353,271.5C 350.592,269.044 347.759,267.211 344.5,266C 326.881,264.57 309.214,264.07 291.5,264.5C 291.5,253.833 291.5,243.167 291.5,232.5C 305.677,232.829 319.677,232.496 333.5,231.5C 346.896,229.078 352.063,221.078 349,207.5C 346.17,202.666 342.003,199.666 336.5,198.5C 321.676,197.504 306.676,197.171 291.5,197.5C 291.5,186.5 291.5,175.5 291.5,164.5C 308.833,164.5 326.167,164.5 343.5,164.5 Z"/></g>
<g><path style="opacity:1" fill="#969696" d="M 239.5,164.5 C 249.653,163.506 259.986,163.172 270.5,163.5C 270.832,220.336 270.499,277.002 269.5,333.5C 269.5,277.167 269.5,220.833 269.5,164.5C 259.5,164.5 249.5,164.5 239.5,164.5 Z"/></g>
<g><path style="opacity:1" fill="#353535" d="M 146.5,221.5 C 145.833,258.833 145.167,296.167 144.5,333.5C 144.333,295.165 144.5,256.832 145,218.5C 146.039,219.244 146.539,220.244 146.5,221.5 Z"/></g>
<g><path style="opacity:1" fill="#464646" d="M 240.5,333.5 C 239.833,296.833 239.167,260.167 238.5,223.5C 238.783,222.711 239.283,222.044 240,221.5C 240.5,258.832 240.667,296.165 240.5,333.5 Z"/></g>
<g><path style="opacity:1" fill="#7c7700" d="M 333.5,231.5 C 319.677,232.496 305.677,232.829 291.5,232.5C 291.5,243.167 291.5,253.833 291.5,264.5C 290.505,253.679 290.172,242.679 290.5,231.5C 304.833,231.5 319.167,231.5 333.5,231.5 Z"/></g>
<g><path style="opacity:1" fill="#504602" d="M 291.5,300.5 C 291.5,311.5 291.5,322.5 291.5,333.5C 309.167,333.5 326.833,333.5 344.5,333.5C 326.674,334.497 308.674,334.83 290.5,334.5C 290.172,322.988 290.505,311.654 291.5,300.5 Z"/></g>
<g><path style="opacity:1" fill="#f3f3f3" d="M 117.5,370.5 C 117.013,369.527 116.513,368.527 116,367.5C 115.5,374.158 115.334,380.825 115.5,387.5C 114.167,387.5 112.833,387.5 111.5,387.5C 111.5,379.167 111.5,370.833 111.5,362.5C 114.167,362.5 116.833,362.5 119.5,362.5C 120.995,368.481 122.495,374.481 124,380.5C 125.68,374.78 127.513,369.113 129.5,363.5C 132.086,362.52 134.753,362.187 137.5,362.5C 137.5,370.833 137.5,379.167 137.5,387.5C 135.833,387.5 134.167,387.5 132.5,387.5C 132.666,380.825 132.5,374.158 132,367.5C 130.324,373.868 128.491,380.201 126.5,386.5C 124.955,387.452 123.288,387.785 121.5,387.5C 120.17,381.852 118.836,376.185 117.5,370.5 Z"/></g>
<g><path style="opacity:1" fill="#838383" d="M 182.5,362.5 C 182.5,364.833 182.5,367.167 182.5,369.5C 181.5,369.5 180.5,369.5 179.5,369.5C 180.895,367.307 181.895,364.974 182.5,362.5 Z"/></g>
<g><path style="opacity:1" fill="#ebebeb" d="M 182.5,362.5 C 183.833,362.5 185.167,362.5 186.5,362.5C 186.5,364.833 186.5,367.167 186.5,369.5C 187.833,369.5 189.167,369.5 190.5,369.5C 190.5,370.5 190.5,371.5 190.5,372.5C 189.167,372.5 187.833,372.5 186.5,372.5C 186.5,376.167 186.5,379.833 186.5,383.5C 187.5,383.5 188.5,383.5 189.5,383.5C 189.5,384.833 189.5,386.167 189.5,387.5C 186.635,387.945 184.135,387.278 182,385.5C 181.834,380.007 181.001,374.673 179.5,369.5C 180.5,369.5 181.5,369.5 182.5,369.5C 182.5,367.167 182.5,364.833 182.5,362.5 Z"/></g>
<g><path style="opacity:1" fill="#e9e9e9" d="M 216.5,362.5 C 218.167,362.5 219.833,362.5 221.5,362.5C 221.5,363.833 221.5,365.167 221.5,366.5C 220.5,366.5 219.5,366.5 218.5,366.5C 218.5,367.5 218.5,368.5 218.5,369.5C 219.5,369.5 220.5,369.5 221.5,369.5C 221.5,370.5 221.5,371.5 221.5,372.5C 220.5,372.5 219.5,372.5 218.5,372.5C 218.5,377.5 218.5,382.5 218.5,387.5C 216.833,387.5 215.167,387.5 213.5,387.5C 213.5,382.5 213.5,377.5 213.5,372.5C 212.5,372.5 211.5,372.5 210.5,372.5C 210.5,371.5 210.5,370.5 210.5,369.5C 211.5,369.5 212.5,369.5 213.5,369.5C 213.166,366.509 214.166,364.176 216.5,362.5 Z"/></g>
<g><path style="opacity:1" fill="#efd053" d="M 252.5,362.5 C 257.511,362.334 262.511,362.501 267.5,363C 271.032,366.39 271.366,370.057 268.5,374C 273.423,377.615 273.756,381.615 269.5,386C 263.928,387.351 258.262,387.851 252.5,387.5C 252.5,379.167 252.5,370.833 252.5,362.5 Z"/></g>
<g><path style="opacity:1" fill="#83722d" d="M 315.5,362.5 C 315.5,364.833 315.5,367.167 315.5,369.5C 314.5,369.5 313.5,369.5 312.5,369.5C 313.895,367.307 314.895,364.974 315.5,362.5 Z"/></g>
<g><path style="opacity:1" fill="#ebcd52" d="M 315.5,362.5 C 316.833,362.5 318.167,362.5 319.5,362.5C 319.5,364.833 319.5,367.167 319.5,369.5C 320.833,369.5 322.167,369.5 323.5,369.5C 323.5,370.5 323.5,371.5 323.5,372.5C 322.167,372.5 320.833,372.5 319.5,372.5C 319.5,376.167 319.5,379.833 319.5,383.5C 320.5,383.5 321.5,383.5 322.5,383.5C 322.5,384.833 322.5,386.167 322.5,387.5C 319.635,387.945 317.135,387.278 315,385.5C 314.834,380.007 314.001,374.673 312.5,369.5C 313.5,369.5 314.5,369.5 315.5,369.5C 315.5,367.167 315.5,364.833 315.5,362.5 Z"/></g>
<g><path style="opacity:1" fill="#eccd52" d="M 378.5,362.5 C 380.167,362.5 381.833,362.5 383.5,362.5C 383.5,363.833 383.5,365.167 383.5,366.5C 381.833,366.5 380.167,366.5 378.5,366.5C 378.5,365.167 378.5,363.833 378.5,362.5 Z"/></g>
<g><path style="opacity:1" fill="#eecf52" d="M 385.5,362.5 C 387.167,362.5 388.833,362.5 390.5,362.5C 390.5,363.833 390.5,365.167 390.5,366.5C 388.833,366.5 387.167,366.5 385.5,366.5C 385.5,365.167 385.5,363.833 385.5,362.5 Z"/></g>
<g><path style="opacity:1" fill="#171408" d="M 257.5,366.5 C 259.857,366.337 262.19,366.503 264.5,367C 266.527,368.396 266.86,370.062 265.5,372C 262.854,372.497 260.187,372.664 257.5,372.5C 257.5,370.5 257.5,368.5 257.5,366.5 Z"/></g>
<g><path style="opacity:1" fill="#777777" d="M 117.5,370.5 C 116.833,376.167 116.167,381.833 115.5,387.5C 115.334,380.825 115.5,374.158 116,367.5C 116.513,368.527 117.013,369.527 117.5,370.5 Z"/></g>
<g><path style="opacity:1" fill="#f6f6f6" d="M 152.5,381.5 C 153.483,377.702 153.817,373.702 153.5,369.5C 154.833,369.5 156.167,369.5 157.5,369.5C 157.5,375.5 157.5,381.5 157.5,387.5C 152.925,387.322 148.259,386.989 143.5,386.5C 142.749,385.624 142.249,384.624 142,383.5C 141.501,378.845 141.334,374.179 141.5,369.5C 142.833,369.5 144.167,369.5 145.5,369.5C 145.334,373.846 145.501,378.179 146,382.5C 148.611,385.243 150.778,384.91 152.5,381.5 Z"/></g>
<g><path style="opacity:1" fill="#878787" d="M 157.5,369.5 C 156.167,369.5 154.833,369.5 153.5,369.5C 153.817,373.702 153.483,377.702 152.5,381.5C 152.5,377.167 152.5,372.833 152.5,368.5C 154.415,368.216 156.081,368.549 157.5,369.5 Z"/></g>
<g><path style="opacity:1" fill="#e7e7e7" d="M 165.5,368.5 C 171.412,367.609 175.079,369.942 176.5,375.5C 173.493,375.635 170.993,374.635 169,372.5C 165.398,372.721 164.898,373.888 167.5,376C 172.167,375.992 175.5,377.992 177.5,382C 177.11,384.459 175.776,386.126 173.5,387C 167.742,388.757 163.408,387.091 160.5,382C 162.167,381.333 163.833,381.333 165.5,382C 167.771,385 170.104,385.166 172.5,382.5C 169.012,380.602 165.512,378.602 162,376.5C 160.78,372.707 161.947,370.04 165.5,368.5 Z"/></g>
<g><path style="opacity:1" fill="#eaeaea" d="M 197.5,368.5 C 201.909,367.618 205.409,368.952 208,372.5C 208.499,377.489 208.666,382.489 208.5,387.5C 206.549,387.773 205.049,387.107 204,385.5C 200.333,388.167 196.667,388.167 193,385.5C 192.056,382.653 192.556,380.153 194.5,378C 197.375,376.698 200.375,375.865 203.5,375.5C 203.5,374.5 203.5,373.5 203.5,372.5C 199.789,372.614 196.455,373.614 193.5,375.5C 193.961,372.697 195.295,370.363 197.5,368.5 Z"/></g>
<g><path style="opacity:1" fill="#e5e5e5" d="M 229.5,368.5 C 233.192,367.971 236.358,368.971 239,371.5C 240.397,376.708 240.897,382.041 240.5,387.5C 235.905,386.934 231.238,386.767 226.5,387C 222.5,384 222.5,381 226.5,378C 229.568,376.984 232.568,375.817 235.5,374.5C 235,373.119 234,372.453 232.5,372.5C 230.208,374.449 227.541,375.449 224.5,375.5C 225.002,372.331 226.669,369.998 229.5,368.5 Z"/></g>
<g><path style="opacity:1" fill="#e5c850" d="M 280.5,368.5 C 284.192,367.971 287.358,368.971 290,371.5C 291.397,376.708 291.897,382.041 291.5,387.5C 286.905,386.934 282.238,386.767 277.5,387C 273.402,383.351 273.735,380.018 278.5,377C 281.451,376.904 284.118,376.071 286.5,374.5C 286,373.119 285,372.453 283.5,372.5C 281.208,374.449 278.541,375.449 275.5,375.5C 276.002,372.331 277.669,369.998 280.5,368.5 Z"/></g>
<g><path style="opacity:1" fill="#edce52" d="M 293.5,370.5 C 295.035,369.212 296.701,369.212 298.5,370.5C 299.765,373.796 300.932,377.129 302,380.5C 303.933,377.107 305.1,373.441 305.5,369.5C 307.288,369.215 308.955,369.548 310.5,370.5C 308.235,376.796 306.068,383.129 304,389.5C 302.516,393.488 299.683,395.154 295.5,394.5C 295.5,393.167 295.5,391.833 295.5,390.5C 298.243,390.923 299.576,389.756 299.5,387C 298.147,381.153 296.147,375.653 293.5,370.5 Z"/></g>
<g><path style="opacity:1" fill="#eccd52" d="M 343.5,375.5 C 343.5,376.5 343.5,377.5 343.5,378.5C 338.968,378.182 334.634,378.515 330.5,379.5C 330.884,382.05 332.384,383.383 335,383.5C 337.601,381.847 340.435,381.347 343.5,382C 340.592,387.091 336.258,388.757 330.5,387C 326.079,383.975 324.579,379.808 326,374.5C 329.892,368.043 335.058,366.876 341.5,371C 342.582,372.33 343.249,373.83 343.5,375.5 Z"/></g>
<g><path style="opacity:1" fill="#eacc51" d="M 354.5,368.5 C 357.157,368.162 359.49,368.829 361.5,370.5C 366.023,367.372 369.857,368.039 373,372.5C 373.499,377.489 373.666,382.489 373.5,387.5C 371.833,387.5 370.167,387.5 368.5,387.5C 368.666,382.821 368.499,378.155 368,373.5C 365.978,372.009 364.312,372.342 363,374.5C 362.501,378.821 362.334,383.154 362.5,387.5C 360.833,387.5 359.167,387.5 357.5,387.5C 357.666,382.821 357.499,378.155 357,373.5C 355.062,372.14 353.396,372.473 352,374.5C 351.501,378.821 351.334,383.154 351.5,387.5C 350.167,387.5 348.833,387.5 347.5,387.5C 347.5,381.5 347.5,375.5 347.5,369.5C 349.144,369.286 350.644,369.62 352,370.5C 352.995,369.934 353.828,369.267 354.5,368.5 Z"/></g>
<g><path style="opacity:1" fill="#f9d856" d="M 376.5,369.5 C 377.833,369.5 379.167,369.5 380.5,369.5C 380.183,373.702 380.517,377.702 381.5,381.5C 382.356,384.513 384.189,385.18 387,383.5C 388.379,378.964 388.879,374.297 388.5,369.5C 389.833,369.5 391.167,369.5 392.5,369.5C 392.5,375.5 392.5,381.5 392.5,387.5C 390.549,387.773 389.049,387.107 388,385.5C 384.667,388.167 381.333,388.167 378,385.5C 376.603,380.292 376.103,374.959 376.5,369.5 Z"/></g>
<g><path style="opacity:1" fill="#8b7930" d="M 376.5,369.5 C 377.919,368.549 379.585,368.216 381.5,368.5C 381.5,372.833 381.5,377.167 381.5,381.5C 380.517,377.702 380.183,373.702 380.5,369.5C 379.167,369.5 377.833,369.5 376.5,369.5 Z"/></g>
<g><path style="opacity:1" fill="#dfc24d" d="M 396.5,368.5 C 398.766,368.141 400.599,368.808 402,370.5C 403.444,368.845 405.278,368.178 407.5,368.5C 407.657,369.873 407.49,371.207 407,372.5C 405.004,372.996 403.337,373.996 402,375.5C 401.501,379.486 401.334,383.486 401.5,387.5C 399.833,387.5 398.167,387.5 396.5,387.5C 396.5,381.167 396.5,374.833 396.5,368.5 Z"/></g>
<g><path style="opacity:1" fill="#0d0b03" d="M 332.5,372.5 C 335.346,372.03 337.679,372.863 339.5,375C 336.5,375.667 333.5,375.667 330.5,375C 331.381,374.292 332.047,373.458 332.5,372.5 Z"/></g>
<g><path style="opacity:1" fill="#3f3715" d="M 265.5,377.5 C 263.167,377.5 260.833,377.5 258.5,377.5C 258.5,379.167 258.5,380.833 258.5,382.5C 260.833,382.5 263.167,382.5 265.5,382.5C 263.052,383.473 260.385,383.806 257.5,383.5C 257.5,381.167 257.5,378.833 257.5,376.5C 260.385,376.194 263.052,376.527 265.5,377.5 Z"/></g>
<g><path style="opacity:1" fill="#010100" d="M 265.5,377.5 C 268.167,379.167 268.167,380.833 265.5,382.5C 263.167,382.5 260.833,382.5 258.5,382.5C 258.5,380.833 258.5,379.167 258.5,377.5C 260.833,377.5 263.167,377.5 265.5,377.5 Z"/></g>
<g><path style="opacity:1" fill="#a08b37" d="M 343.5,375.5 C 344.434,376.568 344.768,377.901 344.5,379.5C 339.833,379.5 335.167,379.5 330.5,379.5C 334.634,378.515 338.968,378.182 343.5,378.5C 343.5,377.5 343.5,376.5 343.5,375.5 Z"/></g>
<g><path style="opacity:1" fill="#191919" d="M 198.5,379.5 C 200.167,379.5 201.833,379.5 203.5,379.5C 202.745,384.596 200.411,385.596 196.5,382.5C 197.193,381.482 197.859,380.482 198.5,379.5 Z"/></g>
<g><path style="opacity:1" fill="#171717" d="M 230.5,379.5 C 232.167,379.5 233.833,379.5 235.5,379.5C 235.648,382.352 234.314,384.019 231.5,384.5C 228.031,383.431 227.698,381.764 230.5,379.5 Z"/></g>
<g><path style="opacity:1" fill="#161207" d="M 281.5,379.5 C 283.167,379.5 284.833,379.5 286.5,379.5C 286.621,382.541 285.121,384.208 282,384.5C 278.928,383.119 278.761,381.452 281.5,379.5 Z"/></g>
</svg>
